<svg width="118" height="37" viewBox="0 0 118 37" fill="none" xmlns="http://www.w3.org/2000/svg">
<path d="M18.5015 0C14.8423 0 11.2652 1.08009 8.22264 3.10371C5.18011 5.12731 2.80868 8.00353 1.40835 11.3687C0.00801569 14.7338 -0.358374 18.4367 0.355509 22.0091C1.0694 25.5816 2.83151 28.863 5.41897 31.4384C8.00645 34.014 11.3032 35.768 14.8921 36.4788C18.481 37.1893 22.201 36.8246 25.5818 35.4309C28.9626 34.0368 31.8518 31.6763 33.885 28.6478C35.918 25.6193 37.003 22.0587 37.003 18.4163C37.003 13.532 35.0538 8.84771 31.5841 5.39401C28.1143 1.94028 23.4085 0 18.5015 0ZM29.8666 21.1077C29.8666 21.476 28.1962 21.5286 28.1962 21.897C28.1962 22.2653 29.8483 22.7651 29.8483 23.273C29.8483 23.8938 26.4439 23.9858 26.4439 24.6068C26.4439 25.2699 29.0261 25.0645 29.0261 25.7828C29.0261 26.63 22.5402 26.2353 22.5402 27.1167C22.5402 27.4533 23.3702 27.5929 24.4089 27.7034C24.9798 27.7664 24.8554 28.0453 24.5305 28.2296C22.7147 29.3323 20.6287 29.9159 18.5015 29.9159C16.3744 29.9159 14.2884 29.3323 12.4726 28.2296C12.1502 28.0323 12.0233 27.7534 12.5942 27.7034C13.633 27.5929 14.4656 27.4403 14.4656 27.1167C14.4656 26.2353 7.97679 26.63 7.97679 25.7828C7.97679 25.0645 10.5617 25.2566 10.5617 24.6068C10.5617 23.9858 7.15484 23.8938 7.15484 23.273C7.15484 22.7651 8.80942 22.2732 8.80942 21.897C8.80942 21.5207 7.13633 21.4786 7.13633 21.1077C7.13633 20.7367 8.35745 20.4973 8.35745 20.2342C8.35745 19.737 6.93808 20.642 6.93808 18.4163C6.93808 15.3636 8.15642 12.4359 10.325 10.2774C12.4936 8.11878 15.4347 6.9061 18.5015 6.9061C21.5683 6.9061 24.5096 8.11878 26.6782 10.2774C28.8467 12.4359 30.0649 15.3636 30.0649 18.4163C30.0649 20.642 28.6457 19.7317 28.6457 20.2342C28.6457 20.4973 29.8666 20.7104 29.8666 21.1077Z" fill="url(#paint0_linear_414_1208)"/>
<path d="M45 26.654H50.346C52.0767 26.654 53.58 26.302 54.856 25.598C56.1467 24.894 57.144 23.926 57.848 22.694C58.552 21.462 58.904 20.0467 58.904 18.448C58.904 16.8347 58.552 15.4193 57.848 14.202C57.144 12.97 56.154 12.0093 54.878 11.32C53.602 10.616 52.0913 10.264 50.346 10.264H45V26.654ZM47.992 24.014V12.904H50.412C51.5267 12.904 52.4873 13.1313 53.294 13.586C54.1153 14.0407 54.7533 14.686 55.208 15.522C55.6627 16.3433 55.89 17.3187 55.89 18.448C55.89 19.5773 55.6627 20.56 55.208 21.396C54.768 22.232 54.1373 22.8773 53.316 23.332C52.4947 23.7867 51.5267 24.014 50.412 24.014H47.992Z" fill="white"/>
<path d="M65.3112 26.918C66.0592 26.918 66.7192 26.7787 67.2912 26.5C67.8778 26.2067 68.3398 25.7813 68.6772 25.224V26.654H71.4052V14.686H68.5232V21.704C68.5232 22.496 68.2958 23.1267 67.8412 23.596C67.3865 24.0507 66.8072 24.278 66.1032 24.278C65.3845 24.278 64.7978 24.0507 64.3432 23.596C63.9032 23.1413 63.6832 22.5327 63.6832 21.77V14.686H60.8012V22.012C60.8012 23.4787 61.1972 24.6667 61.9892 25.576C62.7958 26.4707 63.9032 26.918 65.3112 26.918Z" fill="white"/>
<path d="M78.6382 26.918C79.5475 26.918 80.3395 26.764 81.0142 26.456C81.6888 26.148 82.2168 25.7227 82.5982 25.18C82.9795 24.6227 83.1702 23.9847 83.1702 23.266C83.1702 22.43 82.9062 21.7113 82.3782 21.11C81.8502 20.5087 81.0875 20.0687 80.0902 19.79L78.1762 19.218C77.7655 19.1007 77.4282 18.9467 77.1642 18.756C76.9002 18.5653 76.7682 18.3013 76.7682 17.964C76.7682 17.612 76.9075 17.326 77.1862 17.106C77.4648 16.886 77.8462 16.776 78.3302 16.776C78.9315 16.776 79.4742 16.9373 79.9582 17.26C80.4568 17.5827 80.8015 18.0153 80.9922 18.558L83.1922 17.524C82.8255 16.556 82.2095 15.8007 81.3442 15.258C80.4788 14.7007 79.4815 14.422 78.3522 14.422C77.4868 14.422 76.7168 14.576 76.0422 14.884C75.3822 15.192 74.8615 15.6247 74.4802 16.182C74.1135 16.7247 73.9302 17.3627 73.9302 18.096C73.9302 18.9173 74.1868 19.6287 74.7002 20.23C75.2282 20.8313 75.9982 21.2787 77.0102 21.572L78.9682 22.122C79.3495 22.2247 79.6722 22.3787 79.9362 22.584C80.2148 22.7747 80.3542 23.0387 80.3542 23.376C80.3542 23.772 80.1928 24.0873 79.8702 24.322C79.5622 24.542 79.1515 24.652 78.6382 24.652C77.9635 24.652 77.3548 24.4613 76.8122 24.08C76.2695 23.6987 75.8368 23.1707 75.5142 22.496L73.3582 23.53C73.7102 24.5567 74.3555 25.378 75.2942 25.994C76.2475 26.61 77.3622 26.918 78.6382 26.918Z" fill="white"/>
<path d="M85.385 26.654H88.267V23.002L89.807 21.33L93.173 26.654H96.473L91.963 19.504L96.385 14.686H92.799L88.267 19.438V10H85.385V26.654Z" fill="white"/>
<path d="M104.638 26.918C105.9 26.918 107.014 26.654 107.982 26.126C108.965 25.598 109.735 24.872 110.292 23.948C110.85 23.024 111.128 21.9753 111.128 20.802V10.264H108.136V20.648C108.136 21.3373 107.982 21.9533 107.674 22.496C107.381 23.024 106.97 23.442 106.442 23.75C105.929 24.0433 105.328 24.19 104.638 24.19C103.964 24.19 103.362 24.0433 102.834 23.75C102.306 23.442 101.888 23.024 101.58 22.496C101.287 21.9533 101.14 21.3373 101.14 20.648V10.264H98.1482V20.802C98.1482 21.9753 98.4269 23.024 98.9842 23.948C99.5416 24.872 100.304 25.598 101.272 26.126C102.255 26.654 103.377 26.918 104.638 26.918Z" fill="white"/>
<path d="M114.115 26.654H117.107V10.264H114.115V26.654Z" fill="white"/>
<defs>
<linearGradient id="paint0_linear_414_1208" x1="0" y1="0" x2="41.482" y2="6.0322" gradientUnits="userSpaceOnUse">
<stop stop-color="#6DDCFF"/>
<stop offset="1" stop-color="#7F60F9"/>
</linearGradient>
</defs>
</svg>
